<svg version="1.1" id="Layer_1" xmlns="http://www.w3.org/2000/svg" xmlns:xlink="http://www.w3.org/1999/xlink" width="46"
	 viewBox="0 0 437 199.5" style="enable-background:new 0 0 437 199.5;" xml:space="preserve">
<style type="text/css">
	.st0{fill:#5F6368;}
	.st1{fill:#4285F4;}
	.st2{fill:#34A853;}
	.st3{fill:#FBBC04;}
	.st4{fill:#EA4335;}
</style>
<g>
	<path class="st0" d="M206.7,110.9v50.8h-16.1V36.3h42.7c10.3-0.2,20.2,3.7,27.7,10.9c7.5,6.7,11.7,16.4,11.5,26.4
		c0.2,10.1-4,19.8-11.5,26.6c-7.5,7.1-16.7,10.7-27.6,10.7H206.7z M206.7,51.7v43.8h27c6,0.2,11.8-2.2,15.9-6.5
		c8.5-8.2,8.6-21.7,0.4-30.2l-0.4-0.4c-4.1-4.4-9.9-6.8-15.9-6.6C233.7,51.8,206.7,51.7,206.7,51.7z M309.6,73.1
		c11.9,0,21.3,3.2,28.2,9.5c6.9,6.4,10.3,15.1,10.3,26.2v52.8h-15.4v-11.9H332c-6.7,9.8-15.5,14.7-26.6,14.7
		c-9.4,0-17.4-2.8-23.7-8.4c-6.2-5.2-9.7-12.9-9.5-21c0-8.9,3.4-15.9,10.1-21.2c6.7-5.3,15.7-7.9,26.9-7.9c9.6,0,17.4,1.8,23.6,5.2
		v-3.7c0-5.5-2.4-10.7-6.6-14.2c-4.3-3.8-9.8-5.9-15.5-5.9c-9,0-16.1,3.8-21.4,11.4l-14.2-8.9C282.8,78.7,294.3,73.1,309.6,73.1
		L309.6,73.1z M288.8,135.4c0,4.2,2,8.1,5.3,10.5c3.6,2.8,8,4.3,12.5,4.2c6.8,0,13.3-2.7,18.1-7.5c5.3-5,8-10.9,8-17.7
		c-5-4-12-6-21-6c-6.5,0-12,1.6-16.4,4.7C291,126.8,288.8,130.7,288.8,135.4z M436.5,75.9l-53.8,123.6h-16.6l20-43.2L350.7,76h17.5
		l25.5,61.6h0.4L419,76L436.5,75.9z"/>
	<path class="st1" d="M141.6,99.9c0-4.9-0.4-9.8-1.2-14.6H72.5V113h38.9c-1.6,8.9-6.8,16.9-14.4,21.9v18h23.2
		C133.8,140.4,141.6,121.9,141.6,99.9L141.6,99.9z"/>
	<path class="st2" d="M72.5,170.3c19.4,0,35.8-6.4,47.7-17.4l-23.2-18c-6.5,4.4-14.8,6.9-24.5,6.9c-18.8,0-34.7-12.7-40.4-29.7H8.2
		v18.6C20.4,154.9,45.3,170.3,72.5,170.3z"/>
	<path class="st3" d="M32.1,112.1c-3-8.9-3-18.6,0-27.6V66H8.2c-10.3,20.3-10.3,44.3,0,64.6L32.1,112.1z"/>
	<path class="st4" d="M72.5,54.8c10.3-0.2,20.2,3.7,27.6,10.8l20.5-20.5c-13-12.3-30.2-19-48.1-18.8C45.3,26.3,20.4,41.7,8.2,66
		l23.9,18.6C37.8,67.5,53.7,54.8,72.5,54.8z"/>
</g>
</svg>
