<?xml version="1.0" encoding="utf-8"?>
<!-- Generator: Adobe Illustrator 24.0.2, SVG Export Plug-In . SVG Version: 6.00 Build 0)  -->
<svg version="1.1" id="Layer_1" xmlns="http://www.w3.org/2000/svg" xmlns:xlink="http://www.w3.org/1999/xlink" width="32"
	 viewBox="0 0 500 500" style="enable-background:new 0 0 500 500;" xml:space="preserve">
<style type="text/css">
	.st0{fill:#603392;}
</style>
<g>
	<path class="st0" d="M271.5,211.6v87.5c-7.5,3.8-17.5,5-25,5c-20,0-30-10-30-32.5v-60H271.5z"/>
	<path class="st0" d="M250,26.2C126.3,26.2,26.2,126.4,26.2,250c0,123.6,100.2,223.9,223.8,223.9S473.8,373.6,473.8,250
		C473.8,126.4,373.6,26.2,250,26.2z M351.6,204.1c0,3.8-2.5,6.3-6.3,6.3h-28.8v178.8c0,3.8-3.8,7.5-7.5,7.5h-17.5
		c-11.3,0-20-8.8-20-20v-40c-12.5,5-22.5,6.2-35,6.2c-40,0-63.8-26.2-63.8-71.3v-60h-17.5c-8.8,0-16.3-7.5-16.3-16.3v-12.5
		c0-3.8,2.5-6.3,6.3-6.3H259l-75-71.3c-2.5-2.5-1.3-7.5,2.5-8.8l23.8-7.5c10-2.5,20,0,26.2,7.5l68.8,78.8h30
		c8.8,0,16.3,7.5,16.3,16.3V204.1z"/>
</g>
</svg>
