<?xml version="1.0" encoding="utf-8"?>
<!-- Generator: Adobe Illustrator 24.0.2, SVG Export Plug-In . SVG Version: 6.00 Build 0)  -->
<svg version="1.1" id="Layer_1" xmlns="http://www.w3.org/2000/svg" xmlns:xlink="http://www.w3.org/1999/xlink" height="30px"
	 viewBox="0 0 690 180" style="enable-background:new 0 0 690 180;" xml:space="preserve">
<style type="text/css">
	.st0{display:none;fill:#202121;}
	.st1{fill:#202121;}
	.st2{fill:#F92855;}
</style>
<g>
	<g>
		<g>
			<path class="st0" d="M660.5,66.8H523.8c-13.1,0-23.7,10.6-23.7,23.7v36.8c0,21.1-17.1,25-17.1,25h40.8h2.2h134.5
				c13.1,0,23.7-10.6,23.7-23.7v-38C684.2,77.4,673.6,66.8,660.5,66.8z"/>
			<path class="st1" d="M555.3,138.2l-5.9-15.5H519l-5.9,15.5h-4.9l23.6-60.8h4.9l23.5,60.8H555.3z M520.6,118.4h27.1L534.2,83
				L520.6,118.4z"/>
			<path class="st1" d="M591.9,77.4c8.3,0,15.1,2.9,20.5,8.8c5.4,5.9,8.1,13.1,8.1,21.6s-2.7,15.7-8.1,21.6
				c-5.4,5.9-12.3,8.8-20.5,8.8h-22.8V77.4H591.9z M591.9,133.8c7.1,0,12.9-2.5,17.4-7.5c4.5-5,6.8-11.2,6.8-18.5
				c0-7.4-2.3-13.5-6.8-18.5c-4.5-5-10.3-7.5-17.4-7.5h-18.2v52.1H591.9z"/>
			<path class="st1" d="M648.6,139.1c-5.6,0-10.4-1.3-14.3-3.9c-3.9-2.6-6.6-6.1-8-10.5l4-2.3c1.1,3.8,3.2,6.7,6.3,8.9
				c3.1,2.2,7.1,3.3,11.9,3.3c4.9,0,8.7-1.1,11.3-3.4c2.6-2.3,4-5.2,4-8.8c0-3.4-1.3-5.9-3.8-7.7c-2.5-1.8-6.5-3.6-11.9-5.3
				c-2-0.7-3.4-1.2-4.3-1.6c-0.9-0.3-2.2-0.8-3.9-1.4c-1.7-0.6-2.9-1.2-3.7-1.7c-0.8-0.5-1.8-1.2-2.9-2.1c-1.1-0.9-2-1.8-2.5-2.7
				c-0.5-0.9-1-2-1.4-3.2c-0.4-1.2-0.6-2.6-0.6-4.1c0-4.9,1.8-8.9,5.3-11.9c3.5-3,7.9-4.5,13.2-4.5c4.7,0,8.8,1.2,12.2,3.6
				c3.4,2.4,5.8,5.4,7.4,9.2l-3.9,2.2c-2.9-7-8.1-10.5-15.6-10.5c-4.2,0-7.5,1.1-10,3.3c-2.5,2.2-3.7,5-3.7,8.4
				c0,3.3,1.2,5.8,3.5,7.4c2.3,1.6,6.1,3.3,11.4,5c3.3,1.2,5.9,2.2,7.8,2.9c1.9,0.7,3.9,1.7,6.1,3.1c2.2,1.4,3.7,3,4.7,4.9
				c1,1.9,1.5,4.1,1.5,6.6c0,5-1.8,9.1-5.5,12.1C659.5,137.6,654.7,139.1,648.6,139.1z"/>
		</g>
		<g>
			<ellipse transform="matrix(0.9239 -0.3827 0.3827 0.9239 8.4729 166.9164)" class="st1" cx="423.8" cy="62.2" rx="5" ry="5"/>
			<path class="st2" d="M510.1,90c0,40.1-32.5,72.6-72.6,72.6c-3.3,0-6.6-0.2-9.8-0.7c0,0,0,0,0,0c-2-0.3-4-0.6-6-1.1
				c-6.2-2-14.1-7.8-7.5-24.7c11.4-29.2,16.9-40.6,16.9-40.6s11.4-25.6,43.3-28.8l-24.6-4.1c0,0-20.5-20.5-50.2-11.9
				c-3.5,1-31.3,12.8-21.2-2.9c0,0,0,0,0,0c13.2-18.4,34.7-30.4,59-30.4C477.6,17.4,510.1,49.9,510.1,90z"/>
			<path class="st1" d="M421.7,160.8c2,0.4,3.9,0.8,6,1.1L421.7,160.8z"/>
			<ellipse transform="matrix(0.9239 -0.3827 0.3827 0.9239 8.4729 166.9164)" class="st2" cx="423.8" cy="62.2" rx="5" ry="5"/>
		</g>
		<g>
			<path class="st1" d="M30.1,139.4c-6.2,0-11.4-1.3-15.5-4c-4.1-2.7-7.1-6.4-8.8-11l12-7c2.4,5.6,6.7,8.4,12.8,8.4
				c5.5,0,8.3-1.7,8.3-5c0-1.8-0.9-3.2-2.6-4.2c-1.8-1-5.1-2.2-9.9-3.5c-2.5-0.7-4.8-1.5-6.7-2.3c-1.9-0.9-3.8-2-5.6-3.4
				c-1.8-1.4-3.2-3.2-4.2-5.3c-1-2.1-1.4-4.6-1.4-7.4c0-5.6,2-10.1,6-13.5c4-3.4,8.8-5,14.4-5c5,0,9.4,1.2,13.2,3.5s6.8,5.7,9,10.2
				l-11.7,6.9c-1.1-2.3-2.5-4.1-4.1-5.3c-1.6-1.2-3.8-1.8-6.4-1.8c-2.1,0-3.7,0.4-4.8,1.3s-1.7,2-1.7,3.3c0,1.5,0.7,2.8,2.1,3.9
				c1.4,1.1,4.4,2.3,8.8,3.6c2.4,0.8,4.3,1.4,5.6,1.8c1.3,0.5,3,1.2,5.1,2.3c2.1,1.1,3.6,2.2,4.7,3.4c1.1,1.2,2,2.8,2.9,4.7
				c0.8,1.9,1.3,4.2,1.3,6.6c0,5.8-2.1,10.4-6.3,13.7C42.3,137.7,36.8,139.4,30.1,139.4z"/>
			<path class="st1" d="M82.3,77.4c6,0,11,2,15.1,6.1c4.1,4.1,6.2,9,6.2,14.8s-2.1,10.7-6.2,14.8c-4.1,4.1-9.2,6.1-15.1,6.1h-9.1
				v19.1H59.2V77.4H82.3z M82.3,106c2.1,0,3.9-0.8,5.3-2.3c1.4-1.5,2.1-3.4,2.1-5.6s-0.7-4.1-2.1-5.6c-1.4-1.5-3.2-2.3-5.3-2.3h-9.1
				V106H82.3z"/>
			<path class="st1" d="M144,138.2l-3.3-9.6h-23.4l-3,9.6H99.1l20.7-60.8h17.7l20.7,60.8H144z M121.6,115.6h14.7l-7.6-22.3
				L121.6,115.6z"/>
			<path class="st1" d="M195.5,138.2l-11.5-20h-6.6v20h-13.9V77.4h24.3c5.8,0,10.7,2,14.8,6.1c4.1,4.1,6.1,9,6.1,14.8
				c0,3.7-1,7.1-3.1,10.3c-2.1,3.2-4.8,5.6-8.1,7.3l12.9,22.3H195.5z M177.4,90.4V106h10.4c1.9,0,3.5-0.8,4.9-2.3
				c1.4-1.5,2-3.4,2-5.6s-0.7-4.1-2-5.6c-1.4-1.5-3-2.3-4.9-2.3H177.4z"/>
			<path class="st1" d="M248.9,138.2l-11.5-20h-6.6v20h-13.9V77.4h24.3c5.8,0,10.7,2,14.8,6.1c4.1,4.1,6.1,9,6.1,14.8
				c0,3.7-1,7.1-3.1,10.3c-2.1,3.2-4.8,5.6-8.1,7.3l12.9,22.3H248.9z M230.8,90.4V106h10.4c1.9,0,3.5-0.8,4.9-2.3
				c1.4-1.5,2-3.4,2-5.6s-0.7-4.1-2-5.6c-1.4-1.5-3-2.3-4.9-2.3H230.8z"/>
			<path class="st1" d="M297.2,76.2c-10.6,0-20,5.2-25.7,13.2c0,0,0,0,0,0c-3.7,5.2-5.9,11.5-5.9,18.4c0,15.1,10.6,27.7,24.7,30.8
				c0.9,0.2,1.7,0.3,2.6,0.5c0,0,0,0,0,0c1.4,0.2,2.8,0.3,4.3,0.3c17.4,0,31.6-14.1,31.6-31.6S314.6,76.2,297.2,76.2z M297.2,117.3
				c-5.3,0-9.5-4.3-9.5-9.5c0-5.3,4.3-9.5,9.5-9.5s9.5,4.3,9.5,9.5C306.7,113.1,302.4,117.3,297.2,117.3z"/>
			<path class="st1" d="M347.8,138.2L331,77.4h14.6l10.5,42.6l11.7-42.6h11.2l11.7,42.6l10.6-42.6H416l-16.8,60.8h-15.8l-9.9-36.1
				l-9.9,36.1H347.8z"/>
		</g>
	</g>
</g>
</svg>
